<svg width="1113" height="433" viewBox="0 0 1113 433" fill="none" xmlns="http://www.w3.org/2000/svg">
<path d="M367.403 396.261H354.182V390.925H367.403C369.963 390.925 372.037 390.517 373.623 389.701C375.209 388.885 376.364 387.753 377.09 386.302C377.837 384.852 378.211 383.198 378.211 381.34C378.211 379.641 377.837 378.043 377.09 376.548C376.364 375.052 375.209 373.851 373.623 372.945C372.037 372.016 369.963 371.551 367.403 371.551H355.711V415.668H349.151V366.181H367.403C371.142 366.181 374.303 366.827 376.886 368.119C379.469 369.41 381.429 371.2 382.766 373.489C384.102 375.755 384.771 378.349 384.771 381.272C384.771 384.444 384.102 387.152 382.766 389.395C381.429 391.639 379.469 393.349 376.886 394.528C374.303 395.683 371.142 396.261 367.403 396.261ZM398.4 384.671V415.668H392.112V378.893H398.23L398.4 384.671ZM409.888 378.689L409.854 384.535C409.333 384.422 408.835 384.354 408.359 384.331C407.906 384.286 407.384 384.263 406.795 384.263C405.345 384.263 404.065 384.49 402.955 384.943C401.844 385.396 400.904 386.03 400.134 386.846C399.363 387.662 398.751 388.636 398.298 389.769C397.868 390.879 397.584 392.103 397.449 393.44L395.681 394.46C395.681 392.239 395.896 390.154 396.327 388.206C396.78 386.257 397.471 384.535 398.4 383.039C399.329 381.521 400.507 380.343 401.935 379.505C403.385 378.644 405.107 378.213 407.101 378.213C407.554 378.213 408.076 378.27 408.665 378.383C409.254 378.474 409.662 378.576 409.888 378.689ZM430.281 416.348C427.721 416.348 425.398 415.917 423.314 415.056C421.252 414.173 419.473 412.938 417.977 411.352C416.505 409.766 415.372 407.885 414.579 405.71C413.786 403.534 413.389 401.155 413.389 398.572V397.145C413.389 394.154 413.831 391.491 414.715 389.157C415.598 386.801 416.799 384.807 418.317 383.175C419.835 381.544 421.558 380.309 423.484 379.471C425.41 378.632 427.404 378.213 429.465 378.213C432.094 378.213 434.36 378.666 436.263 379.573C438.189 380.479 439.764 381.748 440.987 383.379C442.211 384.988 443.117 386.891 443.707 389.089C444.296 391.265 444.59 393.644 444.59 396.227V399.048H417.128V393.916H438.302V393.44C438.212 391.808 437.872 390.222 437.283 388.682C436.716 387.141 435.81 385.872 434.564 384.875C433.317 383.878 431.618 383.379 429.465 383.379C428.038 383.379 426.724 383.685 425.523 384.297C424.322 384.886 423.291 385.77 422.43 386.948C421.569 388.126 420.9 389.565 420.425 391.265C419.949 392.964 419.711 394.924 419.711 397.145V398.572C419.711 400.317 419.949 401.96 420.425 403.5C420.923 405.019 421.637 406.355 422.566 407.511C423.518 408.667 424.662 409.573 425.999 410.23C427.358 410.887 428.899 411.216 430.621 411.216C432.842 411.216 434.722 410.763 436.263 409.856C437.804 408.95 439.152 407.738 440.308 406.219L444.114 409.244C443.321 410.445 442.313 411.59 441.089 412.677C439.866 413.765 438.359 414.649 436.569 415.328C434.802 416.008 432.706 416.348 430.281 416.348ZM474.432 407.171V378.893H480.754V415.668H474.738L474.432 407.171ZM475.622 399.422L478.239 399.354C478.239 401.801 477.978 404.067 477.457 406.152C476.958 408.213 476.143 410.004 475.01 411.522C473.877 413.04 472.393 414.229 470.557 415.09C468.722 415.929 466.49 416.348 463.862 416.348C462.072 416.348 460.429 416.087 458.933 415.566C457.46 415.045 456.192 414.241 455.127 413.153C454.062 412.065 453.235 410.649 452.645 408.905C452.079 407.16 451.796 405.064 451.796 402.617V378.893H458.084V402.685C458.084 404.339 458.265 405.71 458.627 406.797C459.013 407.862 459.522 408.712 460.157 409.346C460.814 409.958 461.539 410.389 462.332 410.638C463.148 410.887 463.986 411.012 464.847 411.012C467.521 411.012 469.64 410.502 471.203 409.482C472.767 408.44 473.888 407.047 474.568 405.302C475.27 403.534 475.622 401.574 475.622 399.422ZM496.626 386.744V415.668H490.338V378.893H496.286L496.626 386.744ZM495.131 395.887L492.514 395.785C492.536 393.27 492.91 390.947 493.635 388.817C494.36 386.665 495.38 384.796 496.694 383.209C498.008 381.623 499.572 380.4 501.385 379.539C503.22 378.655 505.248 378.213 507.469 378.213C509.281 378.213 510.913 378.462 512.363 378.961C513.813 379.437 515.048 380.207 516.068 381.272C517.11 382.337 517.903 383.719 518.447 385.419C518.991 387.095 519.262 389.146 519.262 391.571V415.668H512.941V391.503C512.941 389.577 512.657 388.036 512.091 386.88C511.524 385.702 510.697 384.852 509.61 384.331C508.522 383.787 507.185 383.515 505.599 383.515C504.036 383.515 502.608 383.844 501.317 384.501C500.048 385.158 498.949 386.064 498.02 387.22C497.113 388.376 496.4 389.701 495.879 391.197C495.38 392.669 495.131 394.233 495.131 395.887ZM535.645 378.893V415.668H529.323V378.893H535.645ZM528.847 369.138C528.847 368.119 529.153 367.258 529.765 366.555C530.399 365.853 531.328 365.502 532.552 365.502C533.753 365.502 534.67 365.853 535.305 366.555C535.962 367.258 536.291 368.119 536.291 369.138C536.291 370.113 535.962 370.951 535.305 371.653C534.67 372.333 533.753 372.673 532.552 372.673C531.328 372.673 530.399 372.333 529.765 371.653C529.153 370.951 528.847 370.113 528.847 369.138ZM556.921 409.992L566.982 378.893H573.406L560.184 415.668H555.97L556.921 409.992ZM548.526 378.893L558.893 410.162L559.606 415.668H555.392L542.069 378.893H548.526ZM594.241 416.348C591.68 416.348 589.358 415.917 587.273 415.056C585.211 414.173 583.432 412.938 581.937 411.352C580.464 409.766 579.331 407.885 578.538 405.71C577.745 403.534 577.348 401.155 577.348 398.572V397.145C577.348 394.154 577.79 391.491 578.674 389.157C579.558 386.801 580.759 384.807 582.277 383.175C583.795 381.544 585.517 380.309 587.443 379.471C589.369 378.632 591.363 378.213 593.425 378.213C596.053 378.213 598.319 378.666 600.222 379.573C602.148 380.479 603.723 381.748 604.947 383.379C606.17 384.988 607.077 386.891 607.666 389.089C608.255 391.265 608.55 393.644 608.55 396.227V399.048H581.087V393.916H602.262V393.44C602.171 391.808 601.831 390.222 601.242 388.682C600.676 387.141 599.769 385.872 598.523 384.875C597.277 383.878 595.577 383.379 593.425 383.379C591.997 383.379 590.683 383.685 589.482 384.297C588.281 384.886 587.25 385.77 586.389 386.948C585.528 388.126 584.86 389.565 584.384 391.265C583.908 392.964 583.67 394.924 583.67 397.145V398.572C583.67 400.317 583.908 401.96 584.384 403.5C584.882 405.019 585.596 406.355 586.525 407.511C587.477 408.667 588.621 409.573 589.958 410.23C591.318 410.887 592.858 411.216 594.58 411.216C596.801 411.216 598.682 410.763 600.222 409.856C601.763 408.95 603.111 407.738 604.267 406.219L608.074 409.244C607.281 410.445 606.272 411.59 605.049 412.677C603.825 413.765 602.318 414.649 600.528 415.328C598.761 416.008 596.665 416.348 594.241 416.348ZM622.179 384.671V415.668H615.891V378.893H622.009L622.179 384.671ZM633.667 378.689L633.633 384.535C633.112 384.422 632.613 384.354 632.137 384.331C631.684 384.286 631.163 384.263 630.574 384.263C629.124 384.263 627.844 384.49 626.733 384.943C625.623 385.396 624.683 386.03 623.912 386.846C623.142 387.662 622.53 388.636 622.077 389.769C621.646 390.879 621.363 392.103 621.227 393.44L619.46 394.46C619.46 392.239 619.675 390.154 620.106 388.206C620.559 386.257 621.25 384.535 622.179 383.039C623.108 381.521 624.286 380.343 625.714 379.505C627.164 378.644 628.886 378.213 630.88 378.213C631.333 378.213 631.854 378.27 632.443 378.383C633.032 378.474 633.44 378.576 633.667 378.689ZM660.891 405.914C660.891 405.007 660.688 404.169 660.28 403.398C659.894 402.605 659.09 401.892 657.867 401.257C656.666 400.6 654.853 400.034 652.428 399.558C650.389 399.127 648.542 398.617 646.888 398.028C645.257 397.439 643.863 396.725 642.708 395.887C641.575 395.049 640.702 394.063 640.091 392.93C639.479 391.797 639.173 390.472 639.173 388.953C639.173 387.503 639.49 386.132 640.125 384.841C640.782 383.549 641.699 382.405 642.878 381.408C644.079 380.411 645.517 379.629 647.194 379.063C648.871 378.496 650.74 378.213 652.802 378.213C655.748 378.213 658.263 378.734 660.348 379.777C662.432 380.819 664.03 382.212 665.14 383.957C666.25 385.679 666.805 387.594 666.805 389.701H660.518C660.518 388.682 660.212 387.696 659.6 386.744C659.011 385.77 658.138 384.965 656.983 384.331C655.85 383.697 654.456 383.379 652.802 383.379C651.058 383.379 649.641 383.651 648.554 384.195C647.489 384.716 646.707 385.385 646.209 386.2C645.733 387.016 645.495 387.877 645.495 388.784C645.495 389.463 645.608 390.075 645.835 390.619C646.084 391.14 646.514 391.627 647.126 392.08C647.738 392.511 648.599 392.919 649.709 393.304C650.82 393.689 652.236 394.074 653.958 394.46C656.971 395.139 659.453 395.955 661.401 396.907C663.35 397.858 664.8 399.025 665.752 400.407C666.703 401.79 667.179 403.466 667.179 405.438C667.179 407.047 666.839 408.519 666.16 409.856C665.503 411.193 664.54 412.349 663.271 413.323C662.024 414.275 660.529 415.022 658.784 415.566C657.062 416.087 655.125 416.348 652.972 416.348C649.732 416.348 646.99 415.77 644.747 414.615C642.504 413.459 640.804 411.963 639.649 410.128C638.493 408.293 637.915 406.355 637.915 404.316H644.237C644.328 406.038 644.826 407.409 645.733 408.429C646.639 409.426 647.749 410.139 649.064 410.57C650.378 410.978 651.681 411.182 652.972 411.182C654.694 411.182 656.133 410.955 657.289 410.502C658.467 410.049 659.362 409.426 659.974 408.633C660.586 407.84 660.891 406.933 660.891 405.914ZM682.27 378.893V415.668H675.948V378.893H682.27ZM675.472 369.138C675.472 368.119 675.778 367.258 676.39 366.555C677.025 365.853 677.954 365.502 679.177 365.502C680.378 365.502 681.296 365.853 681.93 366.555C682.587 367.258 682.916 368.119 682.916 369.138C682.916 370.113 682.587 370.951 681.93 371.653C681.296 372.333 680.378 372.673 679.177 372.673C677.954 372.673 677.025 372.333 676.39 371.653C675.778 370.951 675.472 370.113 675.472 369.138ZM707.761 378.893V383.719H687.878V378.893H707.761ZM694.608 369.954H700.896V406.559C700.896 407.806 701.088 408.746 701.473 409.38C701.859 410.015 702.357 410.434 702.969 410.638C703.581 410.842 704.238 410.944 704.94 410.944C705.461 410.944 706.005 410.899 706.572 410.808C707.161 410.695 707.603 410.604 707.897 410.536L707.931 415.668C707.433 415.827 706.776 415.974 705.96 416.11C705.167 416.269 704.204 416.348 703.071 416.348C701.53 416.348 700.114 416.042 698.822 415.43C697.531 414.819 696.5 413.799 695.729 412.371C694.982 410.921 694.608 408.973 694.608 406.525V369.954ZM725.469 411.862L735.7 378.893H742.429L727.678 421.344C727.338 422.251 726.885 423.225 726.319 424.267C725.775 425.332 725.073 426.341 724.212 427.292C723.351 428.244 722.308 429.014 721.085 429.603C719.884 430.215 718.445 430.521 716.768 430.521C716.27 430.521 715.635 430.453 714.865 430.317C714.094 430.181 713.551 430.068 713.233 429.977L713.199 424.879C713.381 424.902 713.664 424.924 714.049 424.947C714.457 424.992 714.74 425.015 714.899 425.015C716.326 425.015 717.539 424.822 718.536 424.437C719.533 424.075 720.371 423.452 721.051 422.568C721.753 421.707 722.354 420.517 722.852 418.999L725.469 411.862ZM717.958 378.893L727.508 407.443L729.14 414.071L724.619 416.382L711.092 378.893H717.958Z" fill="#003450"/>
<path d="M205.314 89.3818C179.081 117.646 126.347 181.497 126.347 181.497L0 181.497C0 181.497 66.3859 102.585 99.3111 66.6882C107.609 57.8171 115.105 48.8428 124.741 40.178C135.716 30.069 148.03 20.1663 164.359 11.192C171.043 7.16584 180.37 3.89194 191.395 1.70198C197.06 0.675517 203.205 0.10072 209.461 0.0120906C215.717 -0.0765387 221.954 0.322828 227.8 1.18622C241.452 3.24927 252.695 7.16908 261.528 11.6046C277.322 19.6506 286.958 29.2438 294.186 38.837C319.5 68.2243 331.542 99.0674 329.788 130.024C329.252 144.981 324.702 167.159 318.01 181.6L205.582 181.6C205.582 181.6 212.274 170.254 239.043 138.998C243.058 134.253 247.876 129.508 250.553 124.557C254.511 117.228 256.485 109.761 256.442 102.276C255.639 95.571 254.568 88.6598 248.144 82.3674C245.467 80.0981 242.255 77.6224 235.83 76.694C230.477 75.8688 225.123 77.0035 221.375 78.4476C213.612 81.3359 209.33 85.462 205.314 89.3818Z" fill="#003450"/>
<path d="M203.106 333.035C229.339 304.771 282.073 240.92 282.073 240.92H408.42C408.42 240.92 342.034 319.832 309.109 355.729C300.811 364.6 293.315 373.574 283.679 382.239C272.704 392.348 260.39 402.251 244.061 411.225C237.377 415.251 228.05 418.525 217.025 420.715C211.36 421.741 205.215 422.316 198.959 422.405C192.703 422.494 186.465 422.094 180.62 421.231C166.968 419.168 155.725 415.248 146.892 410.812C131.098 402.766 121.462 393.173 114.234 383.58C88.9202 354.193 76.8782 323.35 78.6321 292.393C79.1675 277.436 83.7181 255.258 90.4102 240.817H202.838C202.838 240.817 196.146 252.163 169.377 283.419C165.362 288.164 160.544 292.909 157.867 297.86C153.909 305.189 151.935 312.656 151.978 320.141C152.781 326.846 153.852 333.757 160.276 340.05C162.953 342.319 166.165 344.795 172.589 345.723C177.943 346.548 183.297 345.414 187.045 343.969C194.807 341.081 199.09 336.955 203.106 333.035Z" fill="#003450"/>
<path d="M525.406 246.689C525.406 242.916 524.814 239.587 523.63 236.702C522.521 233.743 520.523 231.08 517.638 228.713C514.827 226.346 510.907 224.089 505.876 221.944C500.92 219.799 494.632 217.617 487.013 215.397C479.024 213.03 471.811 210.404 465.375 207.519C458.94 204.56 453.429 201.194 448.842 197.422C444.256 193.649 440.742 189.321 438.301 184.439C435.86 179.557 434.639 173.972 434.639 167.684C434.639 161.396 435.934 155.589 438.523 150.263C441.112 144.937 444.81 140.313 449.619 136.393C454.501 132.398 460.308 129.291 467.04 127.072C473.771 124.853 481.28 123.743 489.565 123.743C501.697 123.743 511.979 126.073 520.412 130.734C528.919 135.32 535.392 141.349 539.831 148.82C544.269 156.218 546.488 164.133 546.488 172.566H525.184C525.184 166.5 523.889 161.137 521.3 156.477C518.711 151.742 514.79 148.044 509.538 145.381C504.286 142.644 497.628 141.275 489.565 141.275C481.946 141.275 475.658 142.422 470.702 144.715C465.745 147.008 462.047 150.115 459.605 154.036C457.238 157.956 456.055 162.432 456.055 167.462C456.055 170.865 456.757 173.972 458.163 176.783C459.642 179.52 461.899 182.072 464.932 184.439C468.038 186.806 471.959 188.989 476.693 190.986C481.502 192.983 487.235 194.906 493.893 196.756C503.065 199.345 510.981 202.23 517.638 205.411C524.296 208.592 529.77 212.18 534.061 216.174C538.425 220.095 541.643 224.57 543.714 229.6C545.86 234.557 546.932 240.179 546.932 246.467C546.932 253.05 545.601 259.005 542.938 264.331C540.274 269.658 536.465 274.207 531.509 277.98C526.552 281.752 520.597 284.674 513.644 286.746C506.764 288.743 499.071 289.742 490.564 289.742C483.092 289.742 475.732 288.706 468.482 286.635C461.307 284.563 454.76 281.457 448.842 277.314C442.998 273.171 438.301 268.067 434.75 262.001C431.273 255.861 429.535 248.76 429.535 240.697H450.839C450.839 246.245 451.912 251.016 454.057 255.011C456.203 258.931 459.125 262.186 462.823 264.775C466.596 267.364 470.849 269.288 475.584 270.545C480.392 271.729 485.385 272.321 490.564 272.321C498.035 272.321 504.36 271.285 509.538 269.214C514.716 267.143 518.637 264.184 521.3 260.337C524.037 256.49 525.406 251.941 525.406 246.689ZM601.525 266.218L632.373 167.462H645.91L643.247 187.102L611.845 287.522H598.64L601.525 266.218ZM580.775 167.462L607.073 267.327L608.96 287.522H595.09L560.248 167.462H580.775ZM675.426 266.551L700.503 167.462H720.92L686.078 287.522H672.319L675.426 266.551ZM648.906 167.462L679.087 264.553L682.527 287.522H669.434L637.144 186.88L634.481 167.462H648.906ZM736.566 228.824V226.272C736.566 217.617 737.823 209.59 740.338 202.193C742.853 194.722 746.478 188.249 751.213 182.775C755.947 177.227 761.68 172.936 768.412 169.903C775.143 166.796 782.689 165.243 791.048 165.243C799.481 165.243 807.063 166.796 813.795 169.903C820.601 172.936 826.371 177.227 831.105 182.775C835.913 188.249 839.575 194.722 842.09 202.193C844.605 209.59 845.863 217.617 845.863 226.272V228.824C845.863 237.479 844.605 245.505 842.09 252.902C839.575 260.3 835.913 266.773 831.105 272.321C826.371 277.795 820.638 282.085 813.906 285.192C807.248 288.225 799.703 289.742 791.27 289.742C782.837 289.742 775.254 288.225 768.523 285.192C761.791 282.085 756.021 277.795 751.213 272.321C746.478 266.773 742.853 260.3 740.338 252.902C737.823 245.505 736.566 237.479 736.566 228.824ZM757.093 226.272V228.824C757.093 234.816 757.796 240.475 759.202 245.801C760.607 251.053 762.716 255.713 765.527 259.782C768.412 263.851 771.999 267.069 776.29 269.436C780.58 271.729 785.574 272.876 791.27 272.876C796.892 272.876 801.811 271.729 806.028 269.436C810.318 267.069 813.869 263.851 816.68 259.782C819.491 255.713 821.599 251.053 823.005 245.801C824.484 240.475 825.224 234.816 825.224 228.824V226.272C825.224 220.354 824.484 214.769 823.005 209.516C821.599 204.19 819.454 199.493 816.569 195.424C813.758 191.282 810.207 188.027 805.917 185.66C801.7 183.293 796.744 182.109 791.048 182.109C785.426 182.109 780.469 183.293 776.179 185.66C771.962 188.027 768.412 191.282 765.527 195.424C762.716 199.493 760.607 204.19 759.202 209.516C757.796 214.769 757.093 220.354 757.093 226.272ZM866.169 228.824V226.272C866.169 217.617 867.426 209.59 869.941 202.193C872.457 194.722 876.081 188.249 880.816 182.775C885.55 177.227 891.283 172.936 898.015 169.903C904.746 166.796 912.292 165.243 920.651 165.243C929.084 165.243 936.666 166.796 943.398 169.903C950.204 172.936 955.974 177.227 960.708 182.775C965.516 188.249 969.178 194.722 971.693 202.193C974.208 209.59 975.466 217.617 975.466 226.272V228.824C975.466 237.479 974.208 245.505 971.693 252.902C969.178 260.3 965.516 266.773 960.708 272.321C955.974 277.795 950.241 282.085 943.509 285.192C936.851 288.225 929.306 289.742 920.873 289.742C912.44 289.742 904.857 288.225 898.126 285.192C891.394 282.085 885.624 277.795 880.816 272.321C876.081 266.773 872.457 260.3 869.941 252.902C867.426 245.505 866.169 237.479 866.169 228.824ZM886.697 226.272V228.824C886.697 234.816 887.399 240.475 888.805 245.801C890.21 251.053 892.319 255.713 895.13 259.782C898.015 263.851 901.603 267.069 905.893 269.436C910.184 271.729 915.177 272.876 920.873 272.876C926.495 272.876 931.414 271.729 935.631 269.436C939.921 267.069 943.472 263.851 946.283 259.782C949.094 255.713 951.202 251.053 952.608 245.801C954.087 240.475 954.827 234.816 954.827 228.824V226.272C954.827 220.354 954.087 214.769 952.608 209.516C951.202 204.19 949.057 199.493 946.172 195.424C943.361 191.282 939.81 188.027 935.52 185.66C931.303 183.293 926.347 182.109 920.651 182.109C915.029 182.109 910.073 183.293 905.782 185.66C901.566 188.027 898.015 191.282 895.13 195.424C892.319 199.493 890.21 204.19 888.805 209.516C887.399 214.769 886.697 220.354 886.697 226.272ZM1074.67 259.782V167.462H1095.3V287.522H1075.66L1074.67 259.782ZM1078.55 234.483L1087.09 234.261C1087.09 242.25 1086.24 249.648 1084.54 256.453C1082.91 263.185 1080.25 269.029 1076.55 273.985C1072.85 278.941 1068.01 282.825 1062.02 285.636C1056.02 288.373 1048.74 289.742 1040.16 289.742C1034.31 289.742 1028.95 288.891 1024.07 287.19C1019.26 285.488 1015.12 282.862 1011.64 279.311C1008.16 275.761 1005.46 271.137 1003.54 265.441C1001.69 259.745 1000.77 252.902 1000.77 244.913V167.462H1021.29V245.135C1021.29 250.535 1021.88 255.011 1023.07 258.561C1024.33 262.038 1025.99 264.812 1028.06 266.884C1030.21 268.881 1032.57 270.286 1035.16 271.1C1037.83 271.914 1040.56 272.321 1043.37 272.321C1052.1 272.321 1059.02 270.656 1064.12 267.327C1069.23 263.925 1072.89 259.375 1075.11 253.679C1077.4 247.909 1078.55 241.51 1078.55 234.483Z" fill="#003450"/>
</svg>
