<svg width="1023" height="423" viewBox="0 0 1023 423" fill="none" xmlns="http://www.w3.org/2000/svg">
<path d="M278.039 385.639H264.809V380.3H278.039C280.601 380.3 282.675 379.892 284.262 379.075C285.85 378.259 287.006 377.125 287.731 375.674C288.48 374.223 288.854 372.568 288.854 370.709C288.854 369.009 288.48 367.41 287.731 365.914C287.006 364.417 285.85 363.216 284.262 362.309C282.675 361.379 280.601 360.915 278.039 360.915H266.34V405.058H259.776V355.541H278.039C281.78 355.541 284.943 356.187 287.527 357.48C290.112 358.772 292.073 360.563 293.411 362.853C294.749 365.12 295.417 367.716 295.417 370.641C295.417 373.815 294.749 376.525 293.411 378.769C292.073 381.014 290.112 382.726 287.527 383.905C284.943 385.061 281.78 385.639 278.039 385.639ZM309.055 374.042V405.058H302.763V368.26H308.885L309.055 374.042ZM320.55 368.056L320.516 373.906C319.995 373.793 319.496 373.725 319.02 373.702C318.566 373.657 318.045 373.634 317.455 373.634C316.004 373.634 314.723 373.861 313.612 374.314C312.501 374.768 311.56 375.402 310.79 376.219C310.019 377.035 309.406 378.01 308.953 379.143C308.522 380.254 308.239 381.479 308.103 382.816L306.334 383.837C306.334 381.615 306.55 379.529 306.98 377.579C307.434 375.629 308.125 373.906 309.055 372.41C309.985 370.89 311.164 369.712 312.592 368.873C314.043 368.011 315.766 367.58 317.761 367.58C318.215 367.58 318.736 367.637 319.326 367.75C319.915 367.841 320.323 367.943 320.55 368.056ZM340.956 405.738C338.393 405.738 336.07 405.308 333.984 404.446C331.92 403.562 330.141 402.326 328.644 400.739C327.171 399.152 326.037 397.27 325.243 395.094C324.45 392.917 324.053 390.536 324.053 387.952V386.523C324.053 383.531 324.495 380.866 325.379 378.531C326.264 376.173 327.465 374.178 328.984 372.546C330.503 370.913 332.227 369.678 334.154 368.839C336.081 368 338.076 367.58 340.139 367.58C342.769 367.58 345.037 368.034 346.941 368.941C348.868 369.848 350.444 371.117 351.668 372.75C352.893 374.359 353.8 376.264 354.389 378.463C354.979 380.64 355.273 383.02 355.273 385.605V388.428H327.794V383.292H348.982V382.816C348.891 381.184 348.551 379.597 347.961 378.055C347.395 376.513 346.488 375.244 345.241 374.246C343.994 373.248 342.293 372.75 340.139 372.75C338.711 372.75 337.396 373.056 336.194 373.668C334.993 374.257 333.961 375.142 333.099 376.321C332.238 377.5 331.569 378.939 331.093 380.64C330.617 382.34 330.379 384.301 330.379 386.523V387.952C330.379 389.697 330.617 391.341 331.093 392.883C331.592 394.402 332.306 395.74 333.235 396.896C334.188 398.052 335.333 398.959 336.67 399.617C338.031 400.274 339.572 400.603 341.296 400.603C343.518 400.603 345.399 400.15 346.941 399.243C348.483 398.336 349.832 397.123 350.988 395.604L354.797 398.631C354.004 399.832 352.995 400.977 351.77 402.065C350.546 403.154 349.038 404.038 347.247 404.718C345.479 405.398 343.381 405.738 340.956 405.738ZM385.133 396.556V368.26H391.459V405.058H385.439L385.133 396.556ZM386.324 388.802L388.942 388.734C388.942 391.183 388.682 393.45 388.16 395.536C387.661 397.599 386.845 399.39 385.711 400.909C384.578 402.428 383.093 403.619 381.256 404.48C379.42 405.319 377.186 405.738 374.556 405.738C372.765 405.738 371.122 405.478 369.625 404.956C368.151 404.435 366.882 403.63 365.816 402.542C364.75 401.453 363.923 400.036 363.333 398.29C362.767 396.545 362.483 394.447 362.483 391.999V368.26H368.775V392.067C368.775 393.722 368.956 395.094 369.319 396.182C369.704 397.247 370.215 398.098 370.849 398.733C371.507 399.345 372.232 399.775 373.026 400.025C373.842 400.274 374.681 400.399 375.543 400.399C378.218 400.399 380.338 399.889 381.902 398.869C383.467 397.826 384.589 396.431 385.269 394.685C385.972 392.917 386.324 390.956 386.324 388.802ZM407.341 376.117V405.058H401.049V368.26H407.001L407.341 376.117ZM405.845 385.265L403.226 385.163C403.249 382.646 403.623 380.322 404.348 378.191C405.074 376.037 406.094 374.167 407.409 372.58C408.724 370.993 410.289 369.768 412.102 368.907C413.939 368.022 415.968 367.58 418.19 367.58C420.004 367.58 421.636 367.83 423.087 368.328C424.538 368.805 425.774 369.575 426.794 370.641C427.837 371.707 428.631 373.09 429.175 374.79C429.719 376.468 429.991 378.52 429.991 380.946V405.058H423.665V380.878C423.665 378.951 423.382 377.409 422.815 376.253C422.248 375.074 421.421 374.223 420.333 373.702C419.244 373.158 417.907 372.886 416.32 372.886C414.755 372.886 413.327 373.214 412.034 373.872C410.765 374.529 409.665 375.436 408.735 376.593C407.829 377.749 407.114 379.075 406.593 380.572C406.094 382.045 405.845 383.61 405.845 385.265ZM446.383 368.26V405.058H440.058V368.26H446.383ZM439.582 358.5C439.582 357.48 439.888 356.618 440.5 355.915C441.135 355.212 442.064 354.861 443.289 354.861C444.49 354.861 445.409 355.212 446.043 355.915C446.701 356.618 447.03 357.48 447.03 358.5C447.03 359.475 446.701 360.314 446.043 361.017C445.409 361.697 444.49 362.037 443.289 362.037C442.064 362.037 441.135 361.697 440.5 361.017C439.888 360.314 439.582 359.475 439.582 358.5ZM467.673 399.379L477.74 368.26H484.168L470.938 405.058H466.721L467.673 399.379ZM459.273 368.26L469.646 399.549L470.36 405.058H466.143L452.811 368.26H459.273ZM505.015 405.738C502.453 405.738 500.129 405.308 498.043 404.446C495.98 403.562 494.2 402.326 492.704 400.739C491.23 399.152 490.096 397.27 489.303 395.094C488.509 392.917 488.113 390.536 488.113 387.952V386.523C488.113 383.531 488.555 380.866 489.439 378.531C490.323 376.173 491.525 374.178 493.044 372.546C494.563 370.913 496.286 369.678 498.213 368.839C500.14 368 502.136 367.58 504.199 367.58C506.829 367.58 509.096 368.034 511.001 368.941C512.928 369.848 514.504 371.117 515.728 372.75C516.952 374.359 517.859 376.264 518.449 378.463C519.038 380.64 519.333 383.02 519.333 385.605V388.428H491.854V383.292H513.041V382.816C512.95 381.184 512.61 379.597 512.021 378.055C511.454 376.513 510.547 375.244 509.3 374.246C508.053 373.248 506.353 372.75 504.199 372.75C502.77 372.75 501.455 373.056 500.254 373.668C499.052 374.257 498.021 375.142 497.159 376.321C496.297 377.5 495.629 378.939 495.152 380.64C494.676 382.34 494.438 384.301 494.438 386.523V387.952C494.438 389.697 494.676 391.341 495.152 392.883C495.651 394.402 496.365 395.74 497.295 396.896C498.247 398.052 499.392 398.959 500.73 399.617C502.09 400.274 503.632 400.603 505.355 400.603C507.577 400.603 509.459 400.15 511.001 399.243C512.542 398.336 513.891 397.123 515.048 395.604L518.857 398.631C518.063 399.832 517.054 400.977 515.83 402.065C514.606 403.154 513.098 404.038 511.307 404.718C509.538 405.398 507.441 405.738 505.015 405.738ZM532.97 374.042V405.058H526.679V368.26H532.8L532.97 374.042ZM544.466 368.056L544.431 373.906C543.91 373.793 543.411 373.725 542.935 373.702C542.482 373.657 541.96 373.634 541.371 373.634C539.92 373.634 538.639 373.861 537.528 374.314C536.417 374.768 535.476 375.402 534.705 376.219C533.934 377.035 533.322 378.01 532.868 379.143C532.438 380.254 532.154 381.479 532.018 382.816L530.25 383.837C530.25 381.615 530.465 379.529 530.896 377.579C531.349 375.629 532.041 373.906 532.97 372.41C533.9 370.89 535.079 369.712 536.507 368.873C537.958 368.011 539.682 367.58 541.677 367.58C542.13 367.58 542.652 367.637 543.241 367.75C543.831 367.841 544.239 367.943 544.466 368.056ZM571.707 395.298C571.707 394.391 571.503 393.552 571.095 392.781C570.709 391.987 569.904 391.273 568.68 390.638C567.478 389.981 565.664 389.414 563.238 388.938C561.198 388.507 559.35 387.997 557.695 387.408C556.063 386.818 554.668 386.104 553.512 385.265C552.378 384.426 551.505 383.44 550.893 382.306C550.281 381.173 549.975 379.846 549.975 378.327C549.975 376.876 550.292 375.504 550.927 374.212C551.585 372.92 552.503 371.775 553.682 370.777C554.884 369.78 556.323 368.997 558.001 368.431C559.679 367.864 561.549 367.58 563.613 367.58C566.56 367.58 569.077 368.102 571.163 369.145C573.248 370.188 574.847 371.582 575.958 373.328C577.069 375.051 577.624 376.967 577.624 379.075H571.333C571.333 378.055 571.027 377.069 570.414 376.117C569.825 375.142 568.952 374.337 567.796 373.702C566.662 373.067 565.268 372.75 563.613 372.75C561.867 372.75 560.45 373.022 559.361 373.566C558.296 374.087 557.514 374.756 557.015 375.572C556.539 376.389 556.301 377.25 556.301 378.157C556.301 378.837 556.414 379.449 556.641 379.994C556.89 380.515 557.321 381.003 557.933 381.456C558.545 381.887 559.407 382.295 560.518 382.68C561.629 383.066 563.046 383.451 564.769 383.837C567.784 384.517 570.267 385.333 572.217 386.285C574.167 387.237 575.618 388.405 576.57 389.788C577.522 391.171 577.998 392.849 577.998 394.822C577.998 396.431 577.658 397.905 576.978 399.243C576.321 400.58 575.357 401.737 574.087 402.712C572.84 403.664 571.344 404.412 569.598 404.956C567.875 405.478 565.937 405.738 563.783 405.738C560.54 405.738 557.797 405.16 555.552 404.004C553.308 402.848 551.607 401.351 550.451 399.515C549.295 397.678 548.717 395.74 548.717 393.699H555.042C555.133 395.422 555.632 396.794 556.539 397.814C557.446 398.812 558.557 399.526 559.872 399.957C561.187 400.365 562.49 400.569 563.783 400.569C565.506 400.569 566.945 400.342 568.102 399.889C569.281 399.435 570.176 398.812 570.788 398.018C571.401 397.225 571.707 396.318 571.707 395.298ZM593.098 368.26V405.058H586.773V368.26H593.098ZM586.297 358.5C586.297 357.48 586.603 356.618 587.215 355.915C587.85 355.212 588.779 354.861 590.004 354.861C591.205 354.861 592.123 355.212 592.758 355.915C593.416 356.618 593.745 357.48 593.745 358.5C593.745 359.475 593.416 360.314 592.758 361.017C592.123 361.697 591.205 362.037 590.004 362.037C588.779 362.037 587.85 361.697 587.215 361.017C586.603 360.314 586.297 359.475 586.297 358.5ZM618.605 368.26V373.09H598.71V368.26H618.605ZM605.444 359.316H611.735V395.944C611.735 397.191 611.928 398.132 612.313 398.767C612.699 399.401 613.198 399.821 613.81 400.025C614.422 400.229 615.08 400.331 615.782 400.331C616.304 400.331 616.848 400.286 617.415 400.195C618.004 400.082 618.446 399.991 618.741 399.923L618.775 405.058C618.276 405.217 617.619 405.364 616.803 405.5C616.009 405.659 615.046 405.738 613.912 405.738C612.37 405.738 610.953 405.432 609.661 404.82C608.368 404.208 607.337 403.188 606.566 401.759C605.818 400.308 605.444 398.358 605.444 395.91V359.316ZM636.324 401.249L646.561 368.26H653.294L638.534 410.738C638.194 411.645 637.741 412.62 637.174 413.663C636.63 414.728 635.927 415.737 635.066 416.689C634.204 417.642 633.161 418.412 631.937 419.002C630.735 419.614 629.295 419.92 627.618 419.92C627.119 419.92 626.484 419.852 625.713 419.716C624.942 419.58 624.398 419.467 624.081 419.376L624.047 414.275C624.228 414.297 624.511 414.32 624.897 414.343C625.305 414.388 625.588 414.411 625.747 414.411C627.175 414.411 628.388 414.218 629.386 413.833C630.384 413.47 631.223 412.846 631.903 411.962C632.606 411.1 633.206 409.91 633.705 408.391L636.324 401.249ZM628.808 368.26L638.364 396.828L639.997 403.46L635.474 405.772L621.938 368.26H628.808Z" fill="white"/>
<path d="M158.494 89.2488C138.243 117.471 97.5347 181.227 97.5347 181.227L0 181.227C0 181.227 51.2471 102.433 76.6639 66.589C83.0698 57.7311 88.8558 48.7701 96.2949 40.1182C104.767 30.0242 114.273 20.1363 126.878 11.1754C132.038 7.15518 139.238 3.88615 147.749 1.69945C152.122 0.674512 156.865 0.10057 161.695 0.0120726C166.524 -0.0764248 171.339 0.322347 175.852 1.18445C186.39 3.24444 195.069 7.15841 201.889 11.5874C214.08 19.6213 221.519 29.2003 227.099 38.7792C246.64 68.1228 255.936 98.92 254.582 129.831C254.169 144.765 250.656 166.91 245.49 181.33L158.701 181.33C158.701 181.33 163.867 170 184.531 138.791C187.63 134.054 191.35 129.316 193.416 124.372C196.472 117.054 197.995 109.598 197.962 102.124C197.342 95.4288 196.516 88.5278 191.556 82.2449C189.49 79.9789 187.01 77.5069 182.051 76.5799C177.918 75.7559 173.785 76.8889 170.892 78.3309C164.9 81.2149 161.593 85.3349 158.494 89.2488Z" fill="white"/>
<path d="M158.333 320.557C178.584 292.336 219.292 228.579 219.292 228.579H316.827C316.827 228.579 265.58 307.373 240.163 343.217C233.757 352.075 227.971 361.036 220.532 369.688C212.059 379.782 202.554 389.67 189.949 398.631C184.789 402.651 177.589 405.92 169.078 408.107C164.705 409.132 159.961 409.706 155.132 409.794C150.303 409.883 145.487 409.484 140.975 408.622C130.436 406.562 121.757 402.648 114.938 398.219C102.746 390.185 95.3071 380.606 89.7278 371.027C70.1865 341.683 60.8906 310.886 62.2445 279.976C62.6578 265.041 66.1707 242.896 71.3367 228.476H158.126C158.126 228.476 152.96 239.806 132.296 271.015C129.196 275.753 125.477 280.491 123.41 285.435C120.355 292.752 118.831 300.208 118.864 307.682C119.484 314.377 120.311 321.278 125.27 327.561C127.337 329.827 129.816 332.299 134.776 333.226C138.908 334.05 143.041 332.917 145.934 331.475C151.927 328.591 155.233 324.471 158.333 320.557Z" fill="white"/>
<path d="M435.977 234.568C435.977 230.793 435.385 227.462 434.2 224.575C433.09 221.614 431.091 218.95 428.205 216.581C425.392 214.213 421.469 211.955 416.435 209.808C411.476 207.662 405.185 205.478 397.56 203.258C389.566 200.889 382.349 198.261 375.91 195.375C369.47 192.414 363.956 189.046 359.366 185.271C354.777 181.496 351.261 177.166 348.819 172.28C346.376 167.395 345.155 161.807 345.155 155.515C345.155 149.223 346.45 143.413 349.041 138.083C351.631 132.754 355.332 128.128 360.144 124.205C365.029 120.208 370.839 117.099 377.575 114.878C384.311 112.658 391.824 111.547 400.114 111.547C412.253 111.547 422.542 113.879 430.98 118.542C439.493 123.131 445.969 129.164 450.411 136.64C454.852 144.042 457.072 151.962 457.072 160.4H435.755C435.755 154.331 434.459 148.964 431.869 144.301C429.278 139.564 425.355 135.863 420.099 133.198C414.844 130.459 408.182 129.09 400.114 129.09C392.49 129.09 386.198 130.237 381.239 132.532C376.28 134.826 372.579 137.935 370.136 141.858C367.768 145.781 366.583 150.26 366.583 155.293C366.583 158.698 367.286 161.807 368.693 164.619C370.173 167.358 372.431 169.912 375.466 172.28C378.574 174.649 382.497 176.833 387.235 178.831C392.046 180.83 397.783 182.754 404.444 184.605C413.623 187.195 421.543 190.082 428.205 193.265C434.866 196.448 440.344 200.038 444.637 204.035C449.004 207.958 452.224 212.436 454.297 217.469C456.443 222.429 457.516 228.054 457.516 234.346C457.516 240.934 456.184 246.892 453.519 252.222C450.855 257.551 447.043 262.103 442.083 265.878C437.124 269.653 431.165 272.577 424.208 274.65C417.324 276.648 409.626 277.647 401.113 277.647C393.637 277.647 386.272 276.611 379.019 274.539C371.839 272.466 365.288 269.357 359.366 265.212C353.519 261.067 348.819 255.96 345.266 249.89C341.787 243.746 340.047 236.64 340.047 228.572H361.365C361.365 234.124 362.438 238.898 364.585 242.895C366.731 246.818 369.655 250.075 373.356 252.666C377.131 255.256 381.387 257.181 386.124 258.439C390.936 259.624 395.932 260.216 401.113 260.216C408.589 260.216 414.918 259.179 420.099 257.107C425.281 255.034 429.204 252.074 431.869 248.225C434.607 244.376 435.977 239.823 435.977 234.568ZM512.143 254.109L543.009 155.293H556.555L553.89 174.945L522.469 275.427H509.256L512.143 254.109ZM491.38 155.293L517.694 255.219L519.582 275.427H505.703L470.84 155.293H491.38ZM586.089 254.442L611.181 155.293H631.611L596.747 275.427H582.98L586.089 254.442ZM559.552 155.293L589.753 252.444L593.194 275.427H580.093L547.783 174.723L545.119 155.293H559.552ZM647.266 216.692V214.138C647.266 205.478 648.524 197.447 651.041 190.045C653.557 182.569 657.184 176.092 661.922 170.615C666.659 165.063 672.395 160.77 679.131 157.736C685.867 154.627 693.417 153.072 701.781 153.072C710.219 153.072 717.806 154.627 724.542 157.736C731.352 160.77 737.126 165.063 741.863 170.615C746.674 176.092 750.338 182.569 752.855 190.045C755.371 197.447 756.63 205.478 756.63 214.138V216.692C756.63 225.352 755.371 233.384 752.855 240.786C750.338 248.188 746.674 254.664 741.863 260.216C737.126 265.693 731.389 269.986 724.653 273.095C717.992 276.13 710.442 277.647 702.003 277.647C693.565 277.647 685.978 276.13 679.242 273.095C672.506 269.986 666.733 265.693 661.922 260.216C657.184 254.664 653.557 248.188 651.041 240.786C648.524 233.384 647.266 225.352 647.266 216.692ZM667.806 214.138V216.692C667.806 222.688 668.509 228.35 669.916 233.68C671.322 238.935 673.432 243.598 676.244 247.669C679.131 251.74 682.721 254.96 687.014 257.329C691.307 259.624 696.304 260.771 702.003 260.771C707.629 260.771 712.551 259.624 716.77 257.329C721.063 254.96 724.616 251.74 727.429 247.669C730.242 243.598 732.351 238.935 733.758 233.68C735.238 228.35 735.978 222.688 735.978 216.692V214.138C735.978 208.217 735.238 202.628 733.758 197.373C732.351 192.044 730.205 187.343 727.318 183.272C724.505 179.127 720.952 175.87 716.659 173.502C712.44 171.133 707.481 169.949 701.781 169.949C696.156 169.949 691.196 171.133 686.903 173.502C682.684 175.87 679.131 179.127 676.244 183.272C673.432 187.343 671.322 192.044 669.916 197.373C668.509 202.628 667.806 208.217 667.806 214.138ZM776.948 216.692V214.138C776.948 205.478 778.207 197.447 780.723 190.045C783.24 182.569 786.867 176.092 791.604 170.615C796.341 165.063 802.078 160.77 808.814 157.736C815.549 154.627 823.099 153.072 831.464 153.072C839.902 153.072 847.489 154.627 854.225 157.736C861.034 160.77 866.808 165.063 871.545 170.615C876.357 176.092 880.021 182.569 882.537 190.045C885.054 197.447 886.312 205.478 886.312 214.138V216.692C886.312 225.352 885.054 233.384 882.537 240.786C880.021 248.188 876.357 254.664 871.545 260.216C866.808 265.693 861.071 269.986 854.336 273.095C847.674 276.13 840.124 277.647 831.686 277.647C823.247 277.647 815.66 276.13 808.925 273.095C802.189 269.986 796.415 265.693 791.604 260.216C786.867 254.664 783.24 248.188 780.723 240.786C778.207 233.384 776.948 225.352 776.948 216.692ZM797.489 214.138V216.692C797.489 222.688 798.192 228.35 799.598 233.68C801.005 238.935 803.114 243.598 805.927 247.669C808.814 251.74 812.404 254.96 816.697 257.329C820.99 259.624 825.986 260.771 831.686 260.771C837.311 260.771 842.233 259.624 846.453 257.329C850.746 254.96 854.299 251.74 857.111 247.669C859.924 243.598 862.034 238.935 863.44 233.68C864.921 228.35 865.661 222.688 865.661 216.692V214.138C865.661 208.217 864.921 202.628 863.44 197.373C862.034 192.044 859.887 187.343 857 183.272C854.188 179.127 850.635 175.87 846.342 173.502C842.122 171.133 837.163 169.949 831.464 169.949C825.838 169.949 820.879 171.133 816.586 173.502C812.367 175.87 808.814 179.127 805.927 183.272C803.114 187.343 801.005 192.044 799.598 197.373C798.192 202.628 797.489 208.217 797.489 214.138ZM985.573 247.669V155.293H1006.22V275.427H986.572L985.573 247.669ZM989.459 222.355L998.008 222.133C998.008 230.127 997.157 237.529 995.454 244.339C993.826 251.074 991.161 256.922 987.46 261.881C983.759 266.84 978.911 270.727 972.915 273.539C966.92 276.278 959.629 277.647 951.042 277.647C945.195 277.647 939.828 276.796 934.943 275.094C930.132 273.391 925.987 270.764 922.508 267.211C919.029 263.658 916.327 259.031 914.403 253.332C912.552 247.632 911.627 240.786 911.627 232.791V155.293H932.167V233.014C932.167 238.417 932.76 242.895 933.944 246.448C935.202 249.927 936.868 252.703 938.94 254.775C941.087 256.774 943.455 258.18 946.046 258.994C948.711 259.809 951.45 260.216 954.262 260.216C962.997 260.216 969.917 258.55 975.025 255.219C980.132 251.814 983.796 247.262 986.017 241.563C988.311 235.789 989.459 229.387 989.459 222.355Z" fill="white"/>
</svg>
