<svg width="1115" height="421" viewBox="0 0 1115 421" fill="none" xmlns="http://www.w3.org/2000/svg">
<path d="M369.403 384.261H356.182V378.925H369.403C371.963 378.925 374.037 378.517 375.623 377.701C377.209 376.885 378.364 375.753 379.09 374.302C379.837 372.852 380.211 371.198 380.211 369.34C380.211 367.641 379.837 366.043 379.09 364.548C378.364 363.052 377.209 361.851 375.623 360.945C374.037 360.016 371.963 359.551 369.403 359.551H357.711V403.668H351.151V354.181H369.403C373.142 354.181 376.303 354.827 378.886 356.119C381.469 357.41 383.429 359.2 384.766 361.489C386.102 363.755 386.771 366.349 386.771 369.272C386.771 372.444 386.102 375.152 384.766 377.395C383.429 379.639 381.469 381.349 378.886 382.528C376.303 383.683 373.142 384.261 369.403 384.261ZM400.4 372.671V403.668H394.112V366.893H400.23L400.4 372.671ZM411.888 366.689L411.854 372.535C411.333 372.422 410.835 372.354 410.359 372.331C409.906 372.286 409.384 372.263 408.795 372.263C407.345 372.263 406.065 372.49 404.955 372.943C403.844 373.396 402.904 374.03 402.134 374.846C401.363 375.662 400.751 376.636 400.298 377.769C399.868 378.879 399.584 380.103 399.449 381.44L397.681 382.46C397.681 380.239 397.896 378.154 398.327 376.206C398.78 374.257 399.471 372.535 400.4 371.039C401.329 369.521 402.507 368.343 403.935 367.505C405.385 366.644 407.107 366.213 409.101 366.213C409.554 366.213 410.076 366.27 410.665 366.383C411.254 366.474 411.662 366.576 411.888 366.689ZM432.281 404.348C429.721 404.348 427.398 403.917 425.314 403.056C423.252 402.173 421.473 400.938 419.977 399.352C418.505 397.766 417.372 395.885 416.579 393.71C415.786 391.534 415.389 389.155 415.389 386.572V385.145C415.389 382.154 415.831 379.491 416.715 377.157C417.598 374.801 418.799 372.807 420.317 371.175C421.835 369.544 423.558 368.309 425.484 367.471C427.41 366.632 429.404 366.213 431.465 366.213C434.094 366.213 436.36 366.666 438.263 367.573C440.189 368.479 441.764 369.748 442.987 371.379C444.211 372.988 445.117 374.891 445.707 377.089C446.296 379.265 446.59 381.644 446.59 384.227V387.048H419.128V381.916H440.302V381.44C440.212 379.808 439.872 378.222 439.283 376.682C438.716 375.141 437.81 373.872 436.564 372.875C435.317 371.878 433.618 371.379 431.465 371.379C430.038 371.379 428.724 371.685 427.523 372.297C426.322 372.886 425.291 373.77 424.43 374.948C423.569 376.126 422.9 377.565 422.425 379.265C421.949 380.964 421.711 382.924 421.711 385.145V386.572C421.711 388.317 421.949 389.96 422.425 391.5C422.923 393.019 423.637 394.355 424.566 395.511C425.518 396.667 426.662 397.573 427.999 398.23C429.358 398.887 430.899 399.216 432.621 399.216C434.842 399.216 436.722 398.763 438.263 397.856C439.804 396.95 441.152 395.738 442.308 394.219L446.114 397.244C445.321 398.445 444.313 399.59 443.089 400.677C441.866 401.765 440.359 402.649 438.569 403.328C436.802 404.008 434.706 404.348 432.281 404.348ZM476.432 395.171V366.893H482.754V403.668H476.738L476.432 395.171ZM477.622 387.422L480.239 387.354C480.239 389.801 479.978 392.067 479.457 394.152C478.958 396.213 478.143 398.004 477.01 399.522C475.877 401.04 474.393 402.229 472.557 403.09C470.722 403.929 468.49 404.348 465.862 404.348C464.072 404.348 462.429 404.087 460.933 403.566C459.46 403.045 458.192 402.241 457.127 401.153C456.062 400.065 455.235 398.649 454.645 396.905C454.079 395.16 453.796 393.064 453.796 390.617V366.893H460.084V390.685C460.084 392.339 460.265 393.71 460.627 394.797C461.013 395.862 461.522 396.712 462.157 397.346C462.814 397.958 463.539 398.389 464.332 398.638C465.148 398.887 465.986 399.012 466.847 399.012C469.521 399.012 471.64 398.502 473.203 397.482C474.767 396.44 475.888 395.047 476.568 393.302C477.27 391.534 477.622 389.574 477.622 387.422ZM498.626 374.744V403.668H492.338V366.893H498.286L498.626 374.744ZM497.131 383.887L494.514 383.785C494.536 381.27 494.91 378.947 495.635 376.817C496.36 374.665 497.38 372.796 498.694 371.209C500.008 369.623 501.572 368.4 503.385 367.539C505.22 366.655 507.248 366.213 509.469 366.213C511.281 366.213 512.913 366.462 514.363 366.961C515.813 367.437 517.048 368.207 518.068 369.272C519.11 370.337 519.903 371.719 520.447 373.419C520.991 375.095 521.262 377.146 521.262 379.571V403.668H514.941V379.503C514.941 377.577 514.657 376.036 514.091 374.88C513.524 373.702 512.697 372.852 511.61 372.331C510.522 371.787 509.185 371.515 507.599 371.515C506.036 371.515 504.608 371.844 503.317 372.501C502.048 373.158 500.949 374.064 500.02 375.22C499.113 376.376 498.4 377.701 497.879 379.197C497.38 380.669 497.131 382.233 497.131 383.887ZM537.645 366.893V403.668H531.323V366.893H537.645ZM530.847 357.138C530.847 356.119 531.153 355.258 531.765 354.555C532.399 353.853 533.328 353.502 534.552 353.502C535.753 353.502 536.67 353.853 537.305 354.555C537.962 355.258 538.291 356.119 538.291 357.138C538.291 358.113 537.962 358.951 537.305 359.653C536.67 360.333 535.753 360.673 534.552 360.673C533.328 360.673 532.399 360.333 531.765 359.653C531.153 358.951 530.847 358.113 530.847 357.138ZM558.921 397.992L568.982 366.893H575.406L562.184 403.668H557.97L558.921 397.992ZM550.526 366.893L560.893 398.162L561.606 403.668H557.392L544.069 366.893H550.526ZM596.241 404.348C593.68 404.348 591.358 403.917 589.273 403.056C587.211 402.173 585.432 400.938 583.937 399.352C582.464 397.766 581.331 395.885 580.538 393.71C579.745 391.534 579.348 389.155 579.348 386.572V385.145C579.348 382.154 579.79 379.491 580.674 377.157C581.558 374.801 582.759 372.807 584.277 371.175C585.795 369.544 587.517 368.309 589.443 367.471C591.369 366.632 593.363 366.213 595.425 366.213C598.053 366.213 600.319 366.666 602.222 367.573C604.148 368.479 605.723 369.748 606.947 371.379C608.17 372.988 609.077 374.891 609.666 377.089C610.255 379.265 610.55 381.644 610.55 384.227V387.048H583.087V381.916H604.262V381.44C604.171 379.808 603.831 378.222 603.242 376.682C602.676 375.141 601.769 373.872 600.523 372.875C599.277 371.878 597.577 371.379 595.425 371.379C593.997 371.379 592.683 371.685 591.482 372.297C590.281 372.886 589.25 373.77 588.389 374.948C587.528 376.126 586.86 377.565 586.384 379.265C585.908 380.964 585.67 382.924 585.67 385.145V386.572C585.67 388.317 585.908 389.96 586.384 391.5C586.882 393.019 587.596 394.355 588.525 395.511C589.477 396.667 590.621 397.573 591.958 398.23C593.318 398.887 594.858 399.216 596.58 399.216C598.801 399.216 600.682 398.763 602.222 397.856C603.763 396.95 605.111 395.738 606.267 394.219L610.074 397.244C609.281 398.445 608.272 399.59 607.049 400.677C605.825 401.765 604.318 402.649 602.528 403.328C600.761 404.008 598.665 404.348 596.241 404.348ZM624.179 372.671V403.668H617.891V366.893H624.009L624.179 372.671ZM635.667 366.689L635.633 372.535C635.112 372.422 634.613 372.354 634.137 372.331C633.684 372.286 633.163 372.263 632.574 372.263C631.124 372.263 629.844 372.49 628.733 372.943C627.623 373.396 626.683 374.03 625.912 374.846C625.142 375.662 624.53 376.636 624.077 377.769C623.646 378.879 623.363 380.103 623.227 381.44L621.46 382.46C621.46 380.239 621.675 378.154 622.106 376.206C622.559 374.257 623.25 372.535 624.179 371.039C625.108 369.521 626.286 368.343 627.714 367.505C629.164 366.644 630.886 366.213 632.88 366.213C633.333 366.213 633.854 366.27 634.443 366.383C635.032 366.474 635.44 366.576 635.667 366.689ZM662.891 393.914C662.891 393.007 662.688 392.169 662.28 391.398C661.894 390.605 661.09 389.892 659.867 389.257C658.666 388.6 656.853 388.034 654.428 387.558C652.389 387.127 650.542 386.617 648.888 386.028C647.257 385.439 645.863 384.725 644.708 383.887C643.575 383.049 642.702 382.063 642.091 380.93C641.479 379.797 641.173 378.472 641.173 376.953C641.173 375.503 641.49 374.132 642.125 372.841C642.782 371.549 643.699 370.405 644.878 369.408C646.079 368.411 647.517 367.629 649.194 367.063C650.871 366.496 652.74 366.213 654.802 366.213C657.748 366.213 660.263 366.734 662.348 367.777C664.432 368.819 666.03 370.212 667.14 371.957C668.25 373.679 668.805 375.594 668.805 377.701H662.518C662.518 376.682 662.212 375.696 661.6 374.744C661.011 373.77 660.138 372.965 658.983 372.331C657.85 371.697 656.456 371.379 654.802 371.379C653.058 371.379 651.641 371.651 650.554 372.195C649.489 372.716 648.707 373.385 648.209 374.2C647.733 375.016 647.495 375.877 647.495 376.784C647.495 377.463 647.608 378.075 647.835 378.619C648.084 379.14 648.514 379.627 649.126 380.08C649.738 380.511 650.599 380.919 651.709 381.304C652.82 381.689 654.236 382.074 655.958 382.46C658.971 383.139 661.453 383.955 663.401 384.907C665.35 385.858 666.8 387.025 667.752 388.407C668.703 389.79 669.179 391.466 669.179 393.438C669.179 395.047 668.839 396.519 668.16 397.856C667.503 399.193 666.54 400.349 665.271 401.323C664.024 402.275 662.529 403.022 660.784 403.566C659.062 404.087 657.125 404.348 654.972 404.348C651.732 404.348 648.99 403.77 646.747 402.615C644.504 401.459 642.804 399.963 641.649 398.128C640.493 396.293 639.915 394.355 639.915 392.316H646.237C646.328 394.038 646.826 395.409 647.733 396.429C648.639 397.426 649.749 398.139 651.064 398.57C652.378 398.978 653.681 399.182 654.972 399.182C656.694 399.182 658.133 398.955 659.289 398.502C660.467 398.049 661.362 397.426 661.974 396.633C662.586 395.84 662.891 394.933 662.891 393.914ZM684.27 366.893V403.668H677.948V366.893H684.27ZM677.472 357.138C677.472 356.119 677.778 355.258 678.39 354.555C679.025 353.853 679.954 353.502 681.177 353.502C682.378 353.502 683.296 353.853 683.93 354.555C684.587 355.258 684.916 356.119 684.916 357.138C684.916 358.113 684.587 358.951 683.93 359.653C683.296 360.333 682.378 360.673 681.177 360.673C679.954 360.673 679.025 360.333 678.39 359.653C677.778 358.951 677.472 358.113 677.472 357.138ZM709.761 366.893V371.719H689.878V366.893H709.761ZM696.608 357.954H702.896V394.559C702.896 395.806 703.088 396.746 703.473 397.38C703.859 398.015 704.357 398.434 704.969 398.638C705.581 398.842 706.238 398.944 706.94 398.944C707.461 398.944 708.005 398.899 708.572 398.808C709.161 398.695 709.603 398.604 709.897 398.536L709.931 403.668C709.433 403.827 708.776 403.974 707.96 404.11C707.167 404.269 706.204 404.348 705.071 404.348C703.53 404.348 702.114 404.042 700.822 403.43C699.531 402.819 698.5 401.799 697.729 400.371C696.982 398.921 696.608 396.973 696.608 394.525V357.954ZM727.469 399.862L737.7 366.893H744.429L729.678 409.344C729.338 410.251 728.885 411.225 728.319 412.267C727.775 413.332 727.073 414.341 726.212 415.292C725.351 416.244 724.308 417.014 723.085 417.603C721.884 418.215 720.445 418.521 718.768 418.521C718.27 418.521 717.635 418.453 716.865 418.317C716.094 418.181 715.551 418.068 715.233 417.977L715.199 412.879C715.381 412.902 715.664 412.924 716.049 412.947C716.457 412.992 716.74 413.015 716.899 413.015C718.326 413.015 719.539 412.822 720.536 412.437C721.533 412.075 722.371 411.452 723.051 410.568C723.753 409.707 724.354 408.517 724.852 406.999L727.469 399.862ZM719.958 366.893L729.508 395.443L731.14 402.071L726.619 404.382L713.092 366.893H719.958Z" fill="#003450"/>
<path d="M205.314 89.3818C179.081 117.646 126.347 181.497 126.347 181.497L0 181.497C0 181.497 66.3859 102.585 99.3111 66.6882C107.609 57.8171 115.105 48.8428 124.741 40.178C135.716 30.069 148.03 20.1663 164.359 11.192C171.043 7.16584 180.37 3.89194 191.395 1.70198C197.06 0.675517 203.205 0.10072 209.461 0.0120906C215.717 -0.0765387 221.954 0.322828 227.8 1.18622C241.452 3.24927 252.695 7.16908 261.528 11.6046C277.322 19.6506 286.958 29.2438 294.186 38.837C319.5 68.2243 331.542 99.0674 329.788 130.024C329.252 144.981 324.702 167.159 318.01 181.6L205.582 181.6C205.582 181.6 212.274 170.254 239.043 138.998C243.058 134.253 247.876 129.508 250.553 124.557C254.511 117.228 256.485 109.761 256.442 102.276C255.639 95.571 254.568 88.6598 248.144 82.3674C245.467 80.0981 242.255 77.6224 235.83 76.694C230.477 75.8688 225.123 77.0035 221.375 78.4476C213.612 81.3359 209.33 85.462 205.314 89.3818Z" fill="#003450"/>
<path d="M205.106 321.035C231.339 292.771 284.073 228.92 284.073 228.92H410.42C410.42 228.92 344.034 307.832 311.109 343.729C302.811 352.6 295.315 361.574 285.679 370.239C274.704 380.348 262.39 390.251 246.061 399.225C239.377 403.251 230.05 406.525 219.025 408.715C213.36 409.741 207.215 410.316 200.959 410.405C194.703 410.494 188.465 410.094 182.62 409.231C168.968 407.168 157.725 403.248 148.892 398.812C133.098 390.766 123.462 381.173 116.234 371.58C90.9202 342.193 78.8782 311.35 80.6321 280.393C81.1675 265.436 85.7181 243.258 92.4102 228.817H204.838C204.838 228.817 198.146 240.163 171.377 271.419C167.362 276.164 162.544 280.909 159.867 285.86C155.909 293.189 153.935 300.656 153.978 308.141C154.781 314.846 155.852 321.757 162.276 328.05C164.953 330.319 168.165 332.795 174.589 333.723C179.943 334.548 185.297 333.414 189.045 331.969C196.807 329.081 201.09 324.955 205.106 321.035Z" fill="#003450"/>
<path d="M527.406 234.689C527.406 230.916 526.814 227.587 525.631 224.702C524.521 221.743 522.524 219.08 519.639 216.713C516.828 214.346 512.907 212.089 507.877 209.944C502.921 207.799 496.633 205.617 489.013 203.397C481.024 201.03 473.812 198.404 467.376 195.519C460.94 192.56 455.429 189.194 450.843 185.422C446.256 181.649 442.742 177.321 440.301 172.439C437.86 167.557 436.639 161.972 436.639 155.684C436.639 149.396 437.934 143.589 440.523 138.263C443.112 132.937 446.811 128.313 451.619 124.393C456.502 120.398 462.309 117.291 469.04 115.072C475.772 112.853 483.28 111.743 491.565 111.743C503.697 111.743 513.98 114.073 522.413 118.734C530.92 123.32 537.393 129.349 541.831 136.82C546.27 144.218 548.489 152.133 548.489 160.566H527.184C527.184 154.5 525.89 149.137 523.301 144.477C520.711 139.742 516.791 136.044 511.539 133.381C506.286 130.644 499.629 129.275 491.565 129.275C483.946 129.275 477.658 130.422 472.702 132.715C467.746 135.008 464.047 138.115 461.606 142.036C459.239 145.956 458.055 150.432 458.055 155.462C458.055 158.865 458.758 161.972 460.163 164.783C461.643 167.52 463.899 170.072 466.932 172.439C470.039 174.806 473.96 176.989 478.694 178.986C483.502 180.983 489.235 182.906 495.893 184.756C505.066 187.345 512.981 190.23 519.639 193.411C526.296 196.592 531.771 200.18 536.061 204.174C540.426 208.095 543.643 212.57 545.715 217.6C547.86 222.557 548.933 228.179 548.933 234.467C548.933 241.05 547.601 247.005 544.938 252.331C542.275 257.658 538.465 262.207 533.509 265.98C528.553 269.752 522.598 272.674 515.644 274.746C508.765 276.743 501.071 277.742 492.564 277.742C485.093 277.742 477.732 276.706 470.483 274.635C463.307 272.563 456.761 269.457 450.843 265.314C444.999 261.171 440.301 256.067 436.75 250.001C433.274 243.861 431.535 236.76 431.535 228.697H452.84C452.84 234.245 453.913 239.016 456.058 243.011C458.203 246.931 461.125 250.186 464.824 252.775C468.596 255.364 472.85 257.288 477.584 258.545C482.393 259.729 487.386 260.321 492.564 260.321C500.036 260.321 506.36 259.285 511.539 257.214C516.717 255.143 520.637 252.184 523.301 248.337C526.038 244.49 527.406 239.941 527.406 234.689ZM603.526 254.218L634.373 155.462H647.91L645.247 175.102L613.845 275.522H600.641L603.526 254.218ZM582.776 155.462L609.074 255.327L610.96 275.522H597.09L562.248 155.462H582.776ZM677.426 254.551L702.504 155.462H722.92L688.079 275.522H674.319L677.426 254.551ZM650.906 155.462L681.088 252.553L684.528 275.522H671.434L639.144 174.88L636.481 155.462H650.906ZM738.566 216.824V214.272C738.566 205.617 739.824 197.59 742.339 190.193C744.854 182.722 748.479 176.249 753.213 170.775C757.947 165.227 763.68 160.936 770.412 157.903C777.144 154.796 784.689 153.243 793.048 153.243C801.481 153.243 809.064 154.796 815.795 157.903C822.601 160.936 828.371 165.227 833.105 170.775C837.914 176.249 841.575 182.722 844.091 190.193C846.606 197.59 847.863 205.617 847.863 214.272V216.824C847.863 225.479 846.606 233.505 844.091 240.902C841.575 248.3 837.914 254.773 833.105 260.321C828.371 265.795 822.638 270.085 815.906 273.192C809.249 276.225 801.703 277.742 793.27 277.742C784.837 277.742 777.255 276.225 770.523 273.192C763.791 270.085 758.021 265.795 753.213 260.321C748.479 254.773 744.854 248.3 742.339 240.902C739.824 233.505 738.566 225.479 738.566 216.824ZM759.094 214.272V216.824C759.094 222.816 759.797 228.475 761.202 233.801C762.608 239.053 764.716 243.713 767.527 247.782C770.412 251.851 774 255.069 778.29 257.436C782.581 259.729 787.574 260.876 793.27 260.876C798.892 260.876 803.812 259.729 808.028 257.436C812.319 255.069 815.869 251.851 818.68 247.782C821.491 243.713 823.6 239.053 825.005 233.801C826.485 228.475 827.224 222.816 827.224 216.824V214.272C827.224 208.354 826.485 202.769 825.005 197.516C823.6 192.19 821.454 187.493 818.569 183.424C815.758 179.282 812.208 176.027 807.917 173.66C803.701 171.293 798.744 170.109 793.048 170.109C787.426 170.109 782.47 171.293 778.179 173.66C773.963 176.027 770.412 179.282 767.527 183.424C764.716 187.493 762.608 192.19 761.202 197.516C759.797 202.769 759.094 208.354 759.094 214.272ZM868.169 216.824V214.272C868.169 205.617 869.427 197.59 871.942 190.193C874.457 182.722 878.082 176.249 882.816 170.775C887.551 165.227 893.284 160.936 900.015 157.903C906.747 154.796 914.292 153.243 922.651 153.243C931.084 153.243 938.667 154.796 945.399 157.903C952.204 160.936 957.974 165.227 962.709 170.775C967.517 176.249 971.179 182.722 973.694 190.193C976.209 197.59 977.466 205.617 977.466 214.272V216.824C977.466 225.479 976.209 233.505 973.694 240.902C971.179 248.3 967.517 254.773 962.709 260.321C957.974 265.795 952.241 270.085 945.51 273.192C938.852 276.225 931.306 277.742 922.873 277.742C914.44 277.742 906.858 276.225 900.126 273.192C893.395 270.085 887.625 265.795 882.816 260.321C878.082 254.773 874.457 248.3 871.942 240.902C869.427 233.505 868.169 225.479 868.169 216.824ZM888.697 214.272V216.824C888.697 222.816 889.4 228.475 890.805 233.801C892.211 239.053 894.319 243.713 897.13 247.782C900.015 251.851 903.603 255.069 907.894 257.436C912.184 259.729 917.177 260.876 922.873 260.876C928.495 260.876 933.415 259.729 937.631 257.436C941.922 255.069 945.473 251.851 948.284 247.782C951.095 243.713 953.203 239.053 954.608 233.801C956.088 228.475 956.828 222.816 956.828 216.824V214.272C956.828 208.354 956.088 202.769 954.608 197.516C953.203 192.19 951.058 187.493 948.173 183.424C945.362 179.282 941.811 176.027 937.52 173.66C933.304 171.293 928.347 170.109 922.651 170.109C917.029 170.109 912.073 171.293 907.783 173.66C903.566 176.027 900.015 179.282 897.13 183.424C894.319 187.493 892.211 192.19 890.805 197.516C889.4 202.769 888.697 208.354 888.697 214.272ZM1076.67 247.782V155.462H1097.31V275.522H1077.66L1076.67 247.782ZM1080.55 222.483L1089.09 222.261C1089.09 230.25 1088.24 237.648 1086.54 244.453C1084.91 251.185 1082.25 257.029 1078.55 261.985C1074.85 266.941 1070.01 270.825 1064.02 273.636C1058.02 276.373 1050.74 277.742 1042.16 277.742C1036.31 277.742 1030.95 276.891 1026.07 275.19C1021.26 273.488 1017.12 270.862 1013.64 267.311C1010.16 263.761 1007.46 259.137 1005.54 253.441C1003.69 247.745 1002.77 240.902 1002.77 232.913V155.462H1023.29V233.135C1023.29 238.535 1023.89 243.011 1025.07 246.561C1026.33 250.038 1027.99 252.812 1030.06 254.884C1032.21 256.881 1034.57 258.286 1037.16 259.1C1039.83 259.914 1042.56 260.321 1045.37 260.321C1054.1 260.321 1061.02 258.656 1066.12 255.327C1071.23 251.925 1074.89 247.375 1077.11 241.679C1079.4 235.909 1080.55 229.51 1080.55 222.483Z" fill="#003450"/>
</svg>
