<svg width="64" height="64" viewBox="0 0 64 64" fill="none" xmlns="http://www.w3.org/2000/svg">
<path d="M59.974 21.162C61.872 18.357 62.263 15.601 61.848 13.219C61.385 10.565 59.817 8.33 57.385 7.666C55.265 7.086 53.292 7.65 51.382 9.109C50.3628 8.24628 49.2874 7.4522 48.163 6.732C46.967 4.919 45.428 3.529 43.428 2.66C41.419 1.784 39.448 1.816 37.761 2.558C35.896 2.196 33.972 2 32.002 2C30.032 2 28.108 2.195 26.243 2.559C24.557 1.818 22.585 1.785 20.576 2.661C18.575 3.53 17.035 4.92 15.838 6.733C14.7134 7.45378 13.6377 8.24818 12.618 9.111C10.709 7.651 8.734 7.087 6.615 7.667C4.185 8.331 2.615 10.565 2.152 13.22C1.739 15.602 2.13 18.358 4.027 21.163C2.68534 24.6181 1.99798 28.2926 2 31.999C2 48.569 15.434 62 32.002 62C48.568 62 62 48.569 62 31.999C62.0018 28.2924 61.3148 24.6177 59.974 21.162V21.162ZM32.002 59.501C16.837 59.501 4.5 47.164 4.5 31.999C4.5 28.977 4.998 26.069 5.903 23.347C9.564 26.729 17.68 31.801 18 32.001C18.268 31.71 27.6 21.656 29.682 16.698C31.905 11.401 31.078 7.352 29.002 4.723C28.987 4.705 28.97 4.691 28.956 4.673C29.956 4.562 30.972 4.5 32.002 4.5C33.032 4.5 34.048 4.562 35.048 4.673C35.034 4.691 35.017 4.705 35.002 4.723C32.926 7.352 32.1 11.401 34.322 16.698C36.404 21.656 45.734 31.71 46.004 32.001C46.324 31.801 54.439 26.73 58.098 23.347C59.0269 26.137 59.5003 29.0584 59.5 31.999C59.5 47.164 47.165 59.501 32.002 59.501" fill="#8D8D8D"/>
<path d="M47.179 35.9826C43.714 35.3206 38.597 34.6406 31.999 34.6406C25.403 34.6406 20.284 35.3206 16.822 35.9826C15.472 36.2426 15 37.2466 15 38.0496C15 45.3206 20.611 52.6416 32 52.6416C43.389 52.6416 49.002 45.3216 49.002 38.0496C49.001 37.2466 48.526 36.2426 47.179 35.9826V35.9826ZM45.974 39.7706C45.921 40.2116 45.837 40.7456 45.71 41.3236C45.567 41.9626 45.448 42.2596 44.444 42.1396C42.523 41.9106 21.476 41.9106 19.555 42.1396C18.552 42.2586 18.432 41.9616 18.29 41.3236C18.1774 40.8104 18.089 40.2922 18.025 39.7706C17.935 39.0266 18.014 38.5006 19.309 38.2846C21.504 37.9156 26.147 37.2706 31.999 37.2706C37.851 37.2706 42.494 37.9156 44.689 38.2846C45.985 38.5006 46.063 39.0256 45.974 39.7706" fill="#8D8D8D"/>
</svg>
