<svg width="64" height="64" viewBox="0 0 64 64" fill="none" xmlns="http://www.w3.org/2000/svg">
<path d="M62 32C62 48.6 48.6 62 32 62C15.4 62 2 48.6 2 32C2 15.4 15.4 2 32 2C48.6 2 62 15.4 62 32Z" fill="#FFDD67"/>
<path d="M61.8 13.1998C61.3 10.4998 59.8 8.29978 57.3 7.59978C54.6 6.89978 52.2 7.89978 49.9 10.2998C48.6 6.69978 46.6 3.99978 43.4 2.59978C40.2 1.19978 37 2.19978 35 4.69978C32.9 7.29978 32.1 11.3998 34.3 16.6998C36.4 21.6998 45.7 31.6998 46 31.9998C46.4 31.7998 56.8 25.2998 59.3 22.0998C61.8 18.9998 62.3 15.8998 61.8 13.1998V13.1998ZM29 4.69978C27 2.19978 23.8 1.19978 20.6 2.59978C17.4 3.99978 15.4 6.69978 14.1 10.2998C11.7 7.99978 9.30003 6.89978 6.60003 7.69978C4.20003 8.39978 2.60003 10.5998 2.10003 13.2998C1.60003 15.8998 2.20003 19.0998 4.60003 22.1998C7.20003 25.2998 17.6 31.7998 18 31.9998C18.3 31.6998 27.6 21.6998 29.7 16.6998C31.9 11.3998 31.1 7.39978 29 4.69978" fill="#F46767"/>
<path d="M49 38.1002C49 37.3002 48.5 36.3002 47.2 36.0002C43.7 35.3002 38.6 34.7002 32 34.7002C25.4 34.7002 20.3 35.4002 16.8 36.0002C15.4 36.3002 15 37.3002 15 38.1002C15 45.4002 20.6 52.7002 32 52.7002C43.4 52.6002 49 45.3002 49 38.1002Z" fill="#664E27"/>
<path d="M44.7 38.2998C42.5 37.8998 37.9 37.2998 32 37.2998C26.1 37.2998 21.5 37.8998 19.3 38.2998C18 38.4998 17.9 38.9998 18 39.7998C18.1 40.1998 18.1 40.7998 18.3 41.3998C18.4 41.9998 18.6 42.2998 19.6 42.1998C21.5 41.9998 42.6 41.9998 44.5 42.1998C45.5 42.2998 45.6 41.9998 45.8 41.3998C45.9 40.7998 46 40.2998 46.1 39.7998C46.1 38.9998 46 38.4998 44.7 38.2998" fill="white"/>
</svg>
